<?xml version="1.0" standalone="no"?>
<!DOCTYPE svg PUBLIC "-//W3C//DTD SVG 20010904//EN"
 "http://www.w3.org/TR/2001/REC-SVG-20010904/DTD/svg10.dtd">
<svg version="1.0" xmlns="http://www.w3.org/2000/svg"
 width="360.000000pt" height="360.000000pt" viewBox="0 0 360.000000 360.000000"
 preserveAspectRatio="xMidYMid meet">

<g transform="translate(0.000000,360.000000) scale(0.100000,-0.100000)"
fill="#000000" stroke="none">
<path d="M450 3289 c-60 -27 -107 -74 -136 -134 l-24 -50 0 -1305 0 -1305 24
-50 c29 -60 76 -107 136 -134 44 -20 62 -21 856 -21 921 0 871 -4 956 81 77
77 79 93 76 525 l-3 369 -24 34 c-52 72 -158 89 -228 35 -58 -44 -58 -42 -63
-394 l-5 -325 -702 -3 -703 -2 0 1190 0 1190 703 -2 702 -3 5 -325 c5 -348 5
-347 60 -393 65 -56 179 -39 231 34 l24 34 3 369 c3 432 1 448 -76 525 -85 85
-35 81 -956 81 -794 0 -812 -1 -856 -21z"/>
<path d="M2713 2321 c-41 -26 -53 -69 -53 -198 l0 -103 -375 0 c-236 0 -393
-4 -426 -11 -91 -20 -169 -116 -169 -209 0 -93 78 -189 169 -209 33 -7 190
-11 426 -11 l375 0 1 -107 c0 -133 12 -172 59 -197 71 -38 81 -31 348 237
l242 243 0 44 0 44 -243 244 c-222 222 -246 244 -283 248 -28 4 -48 -1 -71
-15z"/>
</g>
</svg>
