<?xml version="1.0" standalone="no"?>
<!DOCTYPE svg PUBLIC "-//W3C//DTD SVG 20010904//EN"
 "http://www.w3.org/TR/2001/REC-SVG-20010904/DTD/svg10.dtd">
<svg version="1.0" xmlns="http://www.w3.org/2000/svg"
 width="920.000000pt" height="980.000000pt" viewBox="0 0 920.000000 980.000000"
 preserveAspectRatio="xMidYMid meet">

<g transform="translate(0.000000,980.000000) scale(0.100000,-0.100000)"
fill="#000000" stroke="none">
<path d="M2925 9789 c-293 -39 -597 -208 -786 -437 -166 -201 -247 -409 -264
-684 l-7 -96 -194 -2 c-280 -1 -391 -18 -553 -81 -325 -128 -598 -423 -711
-768 -65 -201 -61 45 -58 -3476 l3 -3190 27 -97 c60 -218 165 -402 324 -567
203 -211 459 -346 726 -381 58 -8 802 -10 2478 -8 2663 4 2424 -2 2628 70 487
171 812 608 812 1090 l0 68 213 -1 c228 -1 298 8 447 57 434 145 794 579 850
1026 7 55 10 917 10 2558 l-1 2475 -1040 1195 c-572 657 -1052 1207 -1067
1222 l-27 26 -1870 5 c-1129 4 -1898 2 -1940 -4z m3355 -1203 c0 -633 2 -768
15 -842 64 -365 262 -626 583 -768 34 -15 106 -39 160 -54 l97 -26 638 -4 637
-3 0 -2237 c0 -2457 4 -2282 -60 -2419 -112 -241 -394 -487 -610 -532 -41 -9
-663 -11 -2470 -9 l-2415 3 -55 22 c-182 75 -371 313 -442 558 l-23 80 0 3155
c0 2982 1 3158 18 3219 49 177 123 306 247 432 105 106 182 152 280 168 30 5
802 9 1728 10 l1672 1 0 -754z m1225 -331 c406 -489 742 -896 748 -903 8 -11
-80 -12 -479 -10 l-489 3 -65 32 c-85 42 -150 100 -220 194 -101 136 -174 287
-227 471 l-27 93 -3 520 c-4 454 -2 518 10 505 8 -8 347 -415 752 -905z
m-5635 -3007 c0 -3134 -3 -2955 59 -3145 124 -378 449 -704 821 -822 180 -57
47 -54 2103 -52 l1887 3 0 -65 c0 -303 -277 -654 -550 -697 -88 -13 -4578 -13
-4674 0 -246 36 -556 308 -670 588 l-31 77 0 3150 0 3150 27 74 c84 231 330
485 544 562 59 22 153 31 387 37 l97 3 0 -2863z"/>
<path d="M3913 5492 c-100 -35 -166 -98 -199 -189 -18 -52 -17 -150 2 -207 22
-64 100 -147 166 -177 l53 -24 1435 0 1435 0 56 26 c162 76 227 257 149 415
-33 68 -76 110 -150 146 l-45 23 -1425 2 c-1350 2 -1428 2 -1477 -15z"/>
<path d="M3913 3962 c-100 -35 -166 -98 -199 -189 -18 -52 -17 -150 2 -207 22
-64 100 -147 166 -177 l53 -24 1435 0 1435 0 56 26 c245 115 241 451 -6 565
-38 18 -101 19 -1465 21 -1350 2 -1428 2 -1477 -15z"/>
</g>
</svg>
