<?xml version="1.0" standalone="no"?>
<!DOCTYPE svg PUBLIC "-//W3C//DTD SVG 20010904//EN"
 "http://www.w3.org/TR/2001/REC-SVG-20010904/DTD/svg10.dtd">
<svg version="1.0" xmlns="http://www.w3.org/2000/svg"
 width="225.000000pt" height="225.000000pt" viewBox="0 0 225.000000 225.000000"
 preserveAspectRatio="xMidYMid meet">
<metadata>
Created by potrace 1.16, written by Peter Selinger 2001-2019
</metadata>
<g transform="translate(0.000000,225.000000) scale(0.100000,-0.100000)"
fill="#000000" stroke="none">
<path d="M982 2239 c-162 -21 -339 -86 -474 -175 -94 -61 -261 -228 -322 -322
-243 -370 -243 -864 0 -1234 61 -94 228 -261 322 -322 370 -243 864 -243 1234
0 94 61 261 228 322 322 243 370 243 864 0 1234 -61 94 -228 261 -322 322
-220 145 -500 209 -760 175z m688 -688 c5 -11 10 -30 10 -43 0 -53 -192 -924
-207 -940 -31 -35 -63 -22 -210 87 -78 58 -146 105 -150 105 -5 0 -45 -34 -90
-75 -45 -41 -87 -75 -93 -75 -16 0 -3 257 15 285 7 11 124 121 260 245 231
209 271 250 248 250 -5 0 -159 -94 -342 -209 l-331 -209 -143 45 c-78 25 -150
49 -159 54 -21 11 -23 42 -5 58 26 21 1122 440 1154 440 22 1 36 -5 43 -18z"/>
</g>
</svg>
