<?xml version="1.0" standalone="no"?>
<!DOCTYPE svg PUBLIC "-//W3C//DTD SVG 20010904//EN"
 "http://www.w3.org/TR/2001/REC-SVG-20010904/DTD/svg10.dtd">
<svg version="1.0" xmlns="http://www.w3.org/2000/svg"
 width="219.000000pt" height="230.000000pt" viewBox="0 0 219.000000 230.000000"
 preserveAspectRatio="xMidYMid meet">
<metadata>
Created by potrace 1.16, written by Peter Selinger 2001-2019
</metadata>
<g transform="translate(0.000000,230.000000) scale(0.100000,-0.100000)"
fill="#000000" stroke="none">
<path d="M865 2290 c-182 -19 -346 -61 -472 -121 -235 -112 -352 -327 -384
-700 -22 -274 4 -543 70 -716 73 -187 224 -331 413 -392 l37 -12 3 -150 3
-151 28 -24 c58 -49 93 -30 235 129 l111 123 193 1 c400 2 686 78 842 224 158
147 214 300 237 647 24 343 -27 634 -140 809 -104 161 -297 264 -590 314 -134
23 -448 33 -586 19z m540 -174 c373 -63 508 -173 586 -474 43 -169 45 -493 3
-702 -35 -175 -141 -324 -276 -388 -136 -65 -399 -112 -636 -113 l-137 0 -105
-126 c-58 -69 -131 -152 -162 -186 -85 -91 -88 -85 -88 168 l0 203 -49 17
c-114 37 -235 144 -292 256 -71 141 -97 344 -80 622 17 273 66 421 179 536 98
100 286 174 507 200 110 13 440 5 550 -13z"/>
<path d="M1061 1877 c-22 -27 -2 -47 45 -47 67 0 143 -19 219 -55 172 -82 273
-235 294 -446 9 -81 20 -103 49 -91 12 4 14 20 8 90 -7 92 -38 198 -82 277
-41 74 -147 174 -225 212 -109 54 -284 88 -308 60z"/>
<path d="M631 1803 c-52 -26 -125 -105 -139 -149 -15 -53 -5 -89 70 -238 86
-172 159 -277 273 -392 115 -116 231 -196 413 -287 157 -77 205 -84 273 -38
60 40 119 124 119 170 0 26 -8 41 -37 68 -52 48 -192 140 -226 148 -26 7 -87
-10 -87 -24 0 -4 -16 -23 -36 -44 -47 -48 -71 -47 -172 3 -102 51 -191 143
-245 251 -49 100 -48 116 13 172 65 60 71 86 34 156 -34 66 -135 195 -163 210
-27 15 -50 13 -90 -6z"/>
<path d="M1111 1726 c-21 -25 -2 -43 50 -50 84 -11 155 -44 207 -94 60 -59 92
-127 101 -212 5 -58 9 -65 29 -68 31 -5 37 18 24 94 -27 165 -139 288 -293
323 -86 19 -107 20 -118 7z"/>
<path d="M1157 1573 c-4 -3 -7 -14 -7 -24 0 -18 19 -29 53 -29 29 0 83 -34 97
-60 6 -11 14 -40 18 -63 7 -36 11 -42 32 -42 23 0 25 3 22 43 -3 55 -33 114
-69 140 -49 34 -129 53 -146 35z"/>
</g>
</svg>
