<?xml version="1.0" standalone="no"?>
<!DOCTYPE svg PUBLIC "-//W3C//DTD SVG 20010904//EN"
 "http://www.w3.org/TR/2001/REC-SVG-20010904/DTD/svg10.dtd">
<svg version="1.0" xmlns="http://www.w3.org/2000/svg"
 width="225.000000pt" height="225.000000pt" viewBox="0 0 225.000000 225.000000"
 preserveAspectRatio="xMidYMid meet">
<metadata>
Created by potrace 1.16, written by Peter Selinger 2001-2019
</metadata>
<g transform="translate(0.000000,225.000000) scale(0.100000,-0.100000)"
fill="#000000" stroke="none">
<path d="M990 2244 c-129 -17 -340 -92 -440 -156 -237 -151 -397 -356 -478
-608 -44 -138 -55 -209 -55 -350 0 -173 40 -345 115 -494 l30 -58 -37 -137
c-20 -75 -55 -202 -77 -284 -23 -81 -39 -149 -37 -152 3 -2 45 7 94 21 50 13
179 47 288 75 l198 50 97 -39 c173 -71 254 -87 442 -87 183 0 258 14 424 79
245 97 495 339 594 577 68 163 84 240 90 415 5 177 -6 255 -54 401 -68 202
-196 382 -366 514 -142 109 -252 162 -433 210 -79 20 -310 34 -395 23z m393
-218 c256 -76 454 -240 572 -476 82 -164 114 -333 95 -513 -30 -288 -210 -564
-460 -705 -163 -92 -316 -128 -512 -120 -104 4 -138 10 -218 37 -52 18 -127
49 -166 70 l-72 37 -167 -43 c-93 -24 -170 -41 -172 -39 -2 2 15 77 39 167
l43 163 -58 116 c-80 159 -100 240 -100 410 -1 95 4 155 16 204 91 365 373
640 732 712 112 22 318 12 428 -20z"/>
<path d="M660 1614 c-22 -20 -52 -61 -67 -92 -23 -47 -28 -70 -27 -132 0 -98
22 -159 94 -269 119 -182 293 -347 445 -424 245 -123 402 -128 528 -18 36 33
51 64 62 137 5 34 3 45 -14 60 -21 21 -243 124 -265 124 -7 0 -41 -34 -75 -75
-34 -41 -66 -75 -72 -75 -32 0 -199 100 -257 154 -65 61 -162 188 -162 212 0
7 20 36 45 65 31 36 45 62 45 82 0 28 -77 220 -106 265 -12 19 -23 22 -74 22
-55 0 -63 -3 -100 -36z"/>
</g>
</svg>
